<mxfile host="Electron" modified="2024-09-20T14:12:10.115Z" agent="Mozilla/5.0 (Windows NT 10.0; Win64; x64) AppleWebKit/537.36 (KHTML, like Gecko) draw.io/22.1.11 Chrome/114.0.5735.289 Electron/25.9.8 Safari/537.36" etag="cm4okDiXrTX8Ji1vF0qe" version="22.1.11" type="device">
  <diagram name="第 1 页" id="ypxzJgjApbNqddavya6D">
    <mxGraphModel dx="1158" dy="1896" grid="1" gridSize="10" guides="1" tooltips="1" connect="1" arrows="1" fold="1" page="1" pageScale="1" pageWidth="827" pageHeight="1169" math="0" shadow="0">
      <root>
        <mxCell id="0" />
        <mxCell id="1" parent="0" />
        <mxCell id="bXLIL-4T1kPuAxH4YukT-2" value="" style="sketch=0;pointerEvents=1;shadow=0;dashed=0;html=1;strokeColor=none;fillColor=#505050;labelPosition=center;verticalLabelPosition=bottom;verticalAlign=top;outlineConnect=0;align=center;shape=mxgraph.office.servers.application_server;points=[[0,0.33,0,0,0],[0,0.67,0,0,0],[0.33,0,0,0,0],[0.33,1,0,0,0],[0.67,0,0,0,0],[0.67,1,0,0,0],[1,0.33,0,0,0],[1,0.67,0,0,0]];" vertex="1" parent="1">
          <mxGeometry x="185" y="-932.5" width="60" height="70" as="geometry" />
        </mxCell>
        <mxCell id="bXLIL-4T1kPuAxH4YukT-4" value="" style="sketch=0;pointerEvents=1;shadow=0;dashed=0;html=1;strokeColor=none;fillColor=#505050;labelPosition=center;verticalLabelPosition=bottom;verticalAlign=top;outlineConnect=0;align=center;shape=mxgraph.office.devices.tv;points=[[0,0.33,0,0,0],[0,0.67,0,0,0],[0.33,0,0,0,0],[0.33,1,0,0,0],[0.67,0,0,0,0],[0.67,1,0,0,0],[1,0.33,0,0,0],[1,0.67,0,0,0]];" vertex="1" parent="1">
          <mxGeometry x="25" y="-1096" width="60" height="45" as="geometry" />
        </mxCell>
        <mxCell id="bXLIL-4T1kPuAxH4YukT-5" value="" style="sketch=0;pointerEvents=1;shadow=0;dashed=0;html=1;strokeColor=none;fillColor=#505050;labelPosition=center;verticalLabelPosition=bottom;verticalAlign=top;outlineConnect=0;align=center;shape=mxgraph.office.servers.application_server;points=[[0,0.33,0,0,0],[0,0.67,0,0,0],[0.33,0,0,0,0],[0.33,1,0,0,0],[0.67,0,0,0,0],[0.67,1,0,0,0],[1,0.33,0,0,0],[1,0.67,0,0,0]];" vertex="1" parent="1">
          <mxGeometry x="395" y="-782.5" width="60" height="70" as="geometry" />
        </mxCell>
        <mxCell id="bXLIL-4T1kPuAxH4YukT-6" value="" style="image;sketch=0;aspect=fixed;html=1;points=[[0,0.33,0,0,0],[0,0.67,0,0,0],[0.33,0,0,0,0],[0.33,1,0,0,0],[0.67,0,0,0,0],[0.67,1,0,0,0],[1,0.33,0,0,0],[1,0.67,0,0,0]];align=center;fontSize=12;image=img/lib/mscae/Cache_Redis_Product.svg;" vertex="1" parent="1">
          <mxGeometry x="777" y="-1094.5" width="50" height="42" as="geometry" />
        </mxCell>
        <mxCell id="bXLIL-4T1kPuAxH4YukT-8" value="1. 与 Netty 建立 WS 连接" style="text;html=1;align=center;verticalAlign=middle;resizable=0;points=[];autosize=1;strokeColor=none;fillColor=none;rotation=0;" vertex="1" parent="1">
          <mxGeometry x="155" y="-1120" width="160" height="30" as="geometry" />
        </mxCell>
        <mxCell id="bXLIL-4T1kPuAxH4YukT-10" value="2.将 {ChannelID: Gateway} 放入到Redis 中" style="text;html=1;align=center;verticalAlign=middle;resizable=0;points=[];autosize=1;strokeColor=none;fillColor=none;rotation=0;" vertex="1" parent="1">
          <mxGeometry x="497" y="-1111" width="250" height="30" as="geometry" />
        </mxCell>
        <mxCell id="bXLIL-4T1kPuAxH4YukT-12" value="3. 返回 ChannlID，作为该连接的标识" style="text;html=1;align=center;verticalAlign=middle;resizable=0;points=[];autosize=1;strokeColor=none;fillColor=none;rotation=0;" vertex="1" parent="1">
          <mxGeometry x="135" y="-1051" width="220" height="30" as="geometry" />
        </mxCell>
        <mxCell id="bXLIL-4T1kPuAxH4YukT-13" value="" style="sketch=0;pointerEvents=1;shadow=0;dashed=0;html=1;strokeColor=none;fillColor=#505050;labelPosition=center;verticalLabelPosition=bottom;verticalAlign=top;outlineConnect=0;align=center;shape=mxgraph.office.servers.application_server;points=[[0,0.33,0,0,0],[0,0.67,0,0,0],[0.33,0,0,0,0],[0.33,1,0,0,0],[0.67,0,0,0,0],[0.67,1,0,0,0],[1,0.33,0,0,0],[1,0.67,0,0,0]];" vertex="1" parent="1">
          <mxGeometry x="405" y="-1105" width="60" height="70" as="geometry" />
        </mxCell>
        <mxCell id="bXLIL-4T1kPuAxH4YukT-18" style="rounded=0;orthogonalLoop=1;jettySize=auto;html=1;exitX=1;exitY=0.33;exitDx=0;exitDy=0;exitPerimeter=0;entryX=0;entryY=0.33;entryDx=0;entryDy=0;entryPerimeter=0;" edge="1" parent="1" source="bXLIL-4T1kPuAxH4YukT-4" target="bXLIL-4T1kPuAxH4YukT-13">
          <mxGeometry relative="1" as="geometry" />
        </mxCell>
        <mxCell id="bXLIL-4T1kPuAxH4YukT-19" style="rounded=0;orthogonalLoop=1;jettySize=auto;html=1;exitX=0;exitY=0.67;exitDx=0;exitDy=0;exitPerimeter=0;entryX=1;entryY=0.67;entryDx=0;entryDy=0;entryPerimeter=0;" edge="1" parent="1" source="bXLIL-4T1kPuAxH4YukT-13" target="bXLIL-4T1kPuAxH4YukT-4">
          <mxGeometry relative="1" as="geometry" />
        </mxCell>
        <mxCell id="bXLIL-4T1kPuAxH4YukT-20" style="rounded=0;orthogonalLoop=1;jettySize=auto;html=1;exitX=1;exitY=0.33;exitDx=0;exitDy=0;exitPerimeter=0;entryX=0;entryY=0.33;entryDx=0;entryDy=0;entryPerimeter=0;" edge="1" parent="1" source="bXLIL-4T1kPuAxH4YukT-13" target="bXLIL-4T1kPuAxH4YukT-6">
          <mxGeometry relative="1" as="geometry" />
        </mxCell>
        <mxCell id="bXLIL-4T1kPuAxH4YukT-22" style="rounded=0;orthogonalLoop=1;jettySize=auto;html=1;entryX=0.33;entryY=1;entryDx=0;entryDy=0;entryPerimeter=0;endArrow=none;endFill=0;exitX=1;exitY=0.25;exitDx=0;exitDy=0;" edge="1" parent="1" source="bXLIL-4T1kPuAxH4YukT-32" target="bXLIL-4T1kPuAxH4YukT-13">
          <mxGeometry relative="1" as="geometry">
            <mxPoint x="295" y="-912.5" as="sourcePoint" />
          </mxGeometry>
        </mxCell>
        <mxCell id="bXLIL-4T1kPuAxH4YukT-23" style="rounded=0;orthogonalLoop=1;jettySize=auto;html=1;entryX=0.33;entryY=0;entryDx=0;entryDy=0;entryPerimeter=0;endArrow=none;endFill=0;exitX=1.033;exitY=0.838;exitDx=0;exitDy=0;exitPerimeter=0;" edge="1" parent="1" source="bXLIL-4T1kPuAxH4YukT-32" target="bXLIL-4T1kPuAxH4YukT-5">
          <mxGeometry relative="1" as="geometry">
            <mxPoint x="285" y="-872.5" as="sourcePoint" />
          </mxGeometry>
        </mxCell>
        <mxCell id="bXLIL-4T1kPuAxH4YukT-24" style="rounded=0;orthogonalLoop=1;jettySize=auto;html=1;exitX=1;exitY=0.33;exitDx=0;exitDy=0;exitPerimeter=0;entryX=0.33;entryY=1;entryDx=0;entryDy=0;entryPerimeter=0;" edge="1" parent="1" source="bXLIL-4T1kPuAxH4YukT-5" target="bXLIL-4T1kPuAxH4YukT-6">
          <mxGeometry relative="1" as="geometry" />
        </mxCell>
        <mxCell id="bXLIL-4T1kPuAxH4YukT-25" style="rounded=0;orthogonalLoop=1;jettySize=auto;html=1;exitX=0.67;exitY=1;exitDx=0;exitDy=0;exitPerimeter=0;entryX=0;entryY=0.33;entryDx=0;entryDy=0;entryPerimeter=0;" edge="1" parent="1" source="bXLIL-4T1kPuAxH4YukT-4" target="bXLIL-4T1kPuAxH4YukT-2">
          <mxGeometry relative="1" as="geometry" />
        </mxCell>
        <mxCell id="bXLIL-4T1kPuAxH4YukT-28" value="应用服务器" style="text;html=1;align=center;verticalAlign=middle;resizable=0;points=[];autosize=1;strokeColor=none;fillColor=none;" vertex="1" parent="1">
          <mxGeometry x="205" y="-822.5" width="80" height="30" as="geometry" />
        </mxCell>
        <mxCell id="bXLIL-4T1kPuAxH4YukT-29" value="Netty" style="text;html=1;align=center;verticalAlign=middle;resizable=0;points=[];autosize=1;strokeColor=none;fillColor=none;" vertex="1" parent="1">
          <mxGeometry x="405" y="-1021" width="50" height="30" as="geometry" />
        </mxCell>
        <mxCell id="bXLIL-4T1kPuAxH4YukT-30" value="Netty" style="text;html=1;align=center;verticalAlign=middle;resizable=0;points=[];autosize=1;strokeColor=none;fillColor=none;" vertex="1" parent="1">
          <mxGeometry x="395" y="-702.5" width="50" height="30" as="geometry" />
        </mxCell>
        <mxCell id="bXLIL-4T1kPuAxH4YukT-31" value="2. 将 userID: [channel1, channel2, ...] 放入到 Redis 中" style="text;html=1;align=center;verticalAlign=middle;resizable=0;points=[];autosize=1;strokeColor=none;fillColor=none;" vertex="1" parent="1">
          <mxGeometry x="467" y="-1081" width="310" height="30" as="geometry" />
        </mxCell>
        <mxCell id="bXLIL-4T1kPuAxH4YukT-32" value="Provider" style="rounded=0;whiteSpace=wrap;html=1;" vertex="1" parent="1">
          <mxGeometry x="245" y="-942.5" width="60" height="105" as="geometry" />
        </mxCell>
      </root>
    </mxGraphModel>
  </diagram>
</mxfile>
